<svg xmlns="http://www.w3.org/2000/svg" width="520" height="520" viewBox="0 0 512 512"><defs><linearGradient id="Lyr2TopcRWJLoAEIShvG1a" x1="256" x2="256" y1="8" y2="512.892" gradientUnits="userSpaceOnUse"><stop offset="0" stop-color="#00efd1"></stop><stop offset="1" stop-color="#00acea"></stop></linearGradient><linearGradient id="Lyr2TopcRWJLoAEIShvG1b" x1="356.886" x2="356.886" y1="8" y2="512.892" xlink:href="#Lyr2TopcRWJLoAEIShvG1a"></linearGradient></defs><g data-name="<Group>"><path fill="url(#Lyr2TopcRWJLoAEIShvG1a)" d="M448.539,89.131l14.79-20.991L428.952,33.682,407.939,48.79A106.234,106.234,0,0,0,385.38,39.4L381.128,14H332.645l-4.253,25.406a107.135,107.135,0,0,0-22.587,9.365L284.763,34.027,250.455,68.28,262.2,85H38.941A10.079,10.079,0,0,0,29,95.149v49.38a9.907,9.907,0,0,0,2.766,7.008L172,294.393v193.27a10.1,10.1,0,0,0,14.592,8.946l80.072-40.081A9.826,9.826,0,0,0,272,447.581V294.393l53.07-53.823c1.032.321,2.172.765,3.219,1.057L332.645,267h48.483l4.254-25.377a109.072,109.072,0,0,0,22.56-9.357l21.076,14.776,34.319-34.416-15.031-21.28a106.628,106.628,0,0,0,9.224-22.6L483,164.433V116.009l-25.175-4.257A108.674,108.674,0,0,0,448.539,89.131ZM258.088,105a71.536,71.536,0,0,0-2.035,7L231,116.321V131H49V105Zm-3.017,178.3A10.21,10.21,0,0,0,252,290.3V441.4l-60,30.1V290.3a10.193,10.193,0,0,0-2.795-7.118L59.531,151H231v13.751l25.069,4.254a108.293,108.293,0,0,0,9.214,22.617L250.5,212.628l34.281,34.381,19.775-13.974ZM463,147.528l-22,3.72-1.386,6.67A85.865,85.865,0,0,1,427.972,186.4l-3.64,5.671,12.954,18.33-10.541,10.567-17.962-12.622-5.617,3.492a88.882,88.882,0,0,1-28.61,11.733l-6.672,1.534L364.216,247H349.557l-3.663-21.869-6.644-1.485a89.1,89.1,0,0,1-14.084-4.267,87.457,87.457,0,0,1-14.436-7.445l-5.654-3.64-18.05,12.679-10.561-10.588,12.584-17.927-3.491-5.615a88.76,88.76,0,0,1-11.733-28.654l-1.227-6.68L251,147.84V133.232l21.605-3.669,1.307-6.688a84.527,84.527,0,0,1,8.37-22.974l.033-.1c.839-1.6,1.884-3.4,3.216-5.508l3.548-5.625L276.466,70.653,287.02,60.1l18.007,12.655L310.66,69.2a87.014,87.014,0,0,1,28.557-11.7l6.672-1.57L349.557,34h14.659l3.668,21.93,6.672,1.486a84.944,84.944,0,0,1,28.451,11.676l5.731,3.735,18.074-12.984L437.3,70.358,424.65,88.31l3.533,5.636a88.936,88.936,0,0,1,11.773,28.665l1.39,6.64L463,132.915Z" data-name="<Compound Path>"></path><path fill="url(#Lyr2TopcRWJLoAEIShvG1b)" d="M356.86,89.247a50.975,50.975,0,1,0,50.974,50.974A51.006,51.006,0,0,0,356.86,89.247Zm0,81.949a30.975,30.975,0,1,1,30.974-30.975A30.984,30.984,0,0,1,356.86,171.2Z" data-name="<Compound Path>"></path></g></svg>