<svg xmlns="http://www.w3.org/2000/svg" width="520" height="520" viewBox="0 0 520 520"><polygon fill="#5b5a57" points="375,310 415,90 115,90 155,310"></polygon><path fill="#d7deed" d="M465,190c11.05,0,20,8.95,20,20s-8.95,20-20,20s-20-8.95-20-20S453.95,190,465,190z"></path><path fill="#d7deed" d="M60,350c8.28,0,15,6.72,15,15s-6.72,15-15,15s-15-6.72-15-15S51.72,350,60,350z"></path><path fill="#d7deed" d="M50,120c8.28,0,15,6.72,15,15s-6.72,15-15,15s-15-6.72-15-15S41.72,120,50,120z"></path><rect width="40" height="30" x="305" y="280" fill="#ea7e23"></rect><rect width="40" height="30" x="235" y="280" fill="#ea7e23"></rect><rect width="300" height="60" x="115" y="30" fill="#57606f"></rect><polygon fill="#3c3b3d" points="155,130 155,310 115,90"></polygon><polygon fill="#2d2c2e" points="415,90 375,130 155,130 115,90"></polygon><polygon fill="#3c3b3d" points="415,90 375,310 375,130"></polygon><path fill="#d7deed" d="M472.07,122.93c1.81,1.81,2.93,4.31,2.93,7.07s-1.12,5.26-2.93,7.07 c-1.811,1.81-4.311,2.93-7.07,2.93s-5.26-1.12-7.07-2.93c-1.81-1.81-2.93-4.31-2.93-7.07c0-5.52,4.48-10,10-10 C467.76,120,470.26,121.12,472.07,122.93z"></path><path fill="#d7deed" d="M462.07,352.93c1.81,1.811,2.93,4.311,2.93,7.07s-1.12,5.26-2.93,7.07 c-1.811,1.81-4.311,2.93-7.07,2.93s-5.26-1.12-7.07-2.93c-1.81-1.811-2.93-4.311-2.93-7.07c0-5.52,4.48-10,10-10 C457.76,350,460.26,351.12,462.07,352.93z"></path><path fill="#d7deed" d="M102.07,272.93c1.81,1.811,2.93,4.311,2.93,7.07s-1.12,5.26-2.93,7.07 c-1.81,1.81-4.31,2.93-7.07,2.93s-5.26-1.12-7.07-2.93C86.12,285.26,85,282.76,85,280c0-5.52,4.48-10,10-10 C97.76,270,100.26,271.12,102.07,272.93z"></path><path fill="#d7deed" d="M72.07,222.93c1.81,1.81,2.93,4.31,2.93,7.07s-1.12,5.26-2.93,7.07S67.76,240,65,240 s-5.26-1.12-7.07-2.93S55,232.76,55,230c0-5.52,4.48-10,10-10C67.76,220,70.26,221.12,72.07,222.93z"></path><path fill="#d7deed" d="M62.07,62.93C64.02,64.88,65,67.44,65,70s-0.98,5.12-2.93,7.07C60.12,79.02,57.56,80,55,80 s-5.12-0.98-7.07-2.93c-3.91-3.9-3.91-10.24,0-14.14C49.88,60.98,52.44,60,55,60S60.12,60.98,62.07,62.93z"></path><path fill="#d7deed" d="M200,320c-5.523,0-10-4.478-10-10v-70c0-5.523,4.477-10,10-10s10,4.477,10,10v70 C210,315.522,205.523,320,200,320z"></path><polygon fill="#57606f" points="375,310 345,310 305,310 275,310 235,310 200,310 155,310 125,310 125,490 405,490 405,310"></polygon><path fill="#3c3b3d" d="M365,390v60H165v-60H365z M345,430v-20h-20v20H345z M205,430v-20h-20v20H205z"></path><path fill="#d8f2f1" d="M372.07,342.93c1.81,1.811,2.93,4.311,2.93,7.07s-1.12,5.26-2.93,7.07 c-1.811,1.81-4.311,2.93-7.07,2.93s-5.26-1.12-7.07-2.93c-1.81-1.811-2.93-4.311-2.93-7.07c0-5.52,4.48-10,10-10 C367.76,340,370.26,341.12,372.07,342.93z"></path><rect width="20" height="20" x="325" y="410" fill="#d7deed"></rect><path fill="#d8f2f1" d="M342.07,342.93c1.81,1.811,2.93,4.311,2.93,7.07s-1.12,5.26-2.93,7.07 c-1.811,1.81-4.311,2.93-7.07,2.93s-5.26-1.12-7.07-2.93c-1.81-1.811-2.93-4.311-2.93-7.07c0-5.52,4.48-10,10-10 C337.76,340,340.26,341.12,342.07,342.93z"></path><rect width="20" height="20" x="185" y="410" fill="#d7deed"></rect><path fill="#d8f2f1" d="M185,370h-20c-5.523,0-10-4.478-10-10s4.477-10,10-10h20c5.523,0,10,4.478,10,10 S190.523,370,185,370z"></path><path fill="#d8f2f1" d="M235,370h-20c-5.523,0-10-4.478-10-10s4.477-10,10-10h20c5.523,0,10,4.478,10,10 S240.523,370,235,370z"></path><path fill="#f14742" d="M200,202c12.696,0,23,10.304,23,23s-10.304,23-23,23s-23-10.304-23-23S187.304,202,200,202z"></path></svg>